# xmcd
#
# Track frame offsets: 
#        150
#        16550
#        31150
#        47283
#        68593
#        84628
#        98688
#        114623
#        129743
#
# Disc length: 2224 seconds
#
# Revision: 0
# Processed by: cddbd v1.4PL0 Copyright (c) Steve Scherf et al.
# Submitted via: ExactAudioCopy v0.90a11
#
DISCID=6008ae09
DTITLE=Kris Kristofferson - Who's To Bless And Who's To Blame
DYEAR=1900
DGENRE=
TTITLE0=The Year 2000 Minus 25
TTITLE1=If It's All The Same To You
TTITLE2=Easy, Come On
TTITLE3=Stallion
TTITLE4=Rocket To Stardom
TTITLE5=Stranger
TTITLE6=Who's To Bless And Who's To Blame
TTITLE7=Don't Cuss The Fiddle
TTITLE8=Silver (The Hunger)
EXTD=
EXTT0=
EXTT1=
EXTT2=
EXTT3=
EXTT4=
EXTT5=
EXTT6=
EXTT7=
EXTT8=
PLAYORDER=
